<svg width="411" height="322" viewBox="0 0 411 322" fill="none" xmlns="http://www.w3.org/2000/svg" class="start" style="">
    <g filter="url(#filter0_d_300_80)">
        <path d="M13 3C13 3 131.2 21.6318 207.5 21.5C282.439 21.3706 398.5 3 398.5 3L391 38V270C391 270 254 300.056 207.5 300C161 299.944 25 270 25 270V38L13 3Z" fill="#352a2e77" class="CCizyKso_0 xpSQAXmz_0"></path>
        <!-- <path d="M13 3L13.1557 2.0122L11.5155 1.75366L12.0541 3.32432L24 38.1667V270V270.804L24.785 270.977L25 270C24.785 270.977 24.7855 270.977 24.7866 270.977L24.7913 270.978L24.81 270.982L24.8843 270.998L25.1777 271.063C25.4368 271.12 25.8218 271.204 26.326 271.313C27.3342 271.533 28.8187 271.855 30.7244 272.264C34.5358 273.084 40.032 274.254 46.7726 275.659C60.2534 278.468 78.7132 282.214 98.6275 285.962C138.414 293.45 184.137 300.972 207.499 301C230.861 301.028 276.835 293.506 316.872 286.004C336.911 282.249 355.496 278.492 369.07 275.675C375.858 274.266 381.393 273.091 385.232 272.269C387.151 271.858 388.646 271.535 389.662 271.315L390.21 271.196C390.458 271.142 390.661 271.098 390.819 271.063L391.114 270.999L391.189 270.982L391.208 270.978L391.213 270.977C391.213 270.977 391.214 270.977 391.176 270.805L391.214 270.977L392 270.804V270V38.106L399.478 3.20953L399.783 1.78444L398.344 2.0123L398.5 3C398.344 2.0123 398.343 2.01236 398.342 2.01249L398.339 2.0131L398.323 2.01558L398.26 2.02549L398.01 2.06475C397.789 2.09943 397.459 2.15093 397.025 2.21814C396.158 2.35255 394.876 2.54978 393.217 2.80088C389.899 3.30309 385.076 4.02079 379.053 4.88251C367.007 6.60596 350.165 8.90528 330.983 11.2086C292.607 15.8166 244.906 20.4354 207.498 20.5C169.411 20.5658 120.836 15.947 81.7555 11.3064C62.221 8.98676 45.0694 6.66296 32.8017 4.91911C26.668 4.0472 21.7555 3.32031 18.3769 2.81148C16.6876 2.55706 15.3818 2.35716 14.4985 2.2209C14.0569 2.15277 13.721 2.10056 13.4955 2.06539L13.2409 2.02558L13.1769 2.01553L13.1609 2.01302L13.157 2.01239C13.1561 2.01226 13.1557 2.0122 13 3Z" stroke="#E7B472" stroke-width="2" class="CCizyKso_1 xpSQAXmz_1"></path> -->
    </g>
    <defs>
    <filter id="filter0_d_300_80" x="0.631067" y="0.507324" width="409.835" height="320.893" filterUnits="userSpaceOnUse" color-interpolation-filters="sRGB">
    <feFlood flood-opacity="0" result="BackgroundImageFix"></feFlood>
    <feColorMatrix in="SourceAlpha" type="matrix" values="0 0 0 0 0 0 0 0 0 0 0 0 0 0 0 0 0 0 127 0" result="hardAlpha"></feColorMatrix>
    <feOffset dy="10"></feOffset>
    <feGaussianBlur stdDeviation="4.7"></feGaussianBlur>
    <feComposite in2="hardAlpha" operator="out"></feComposite>
    <feColorMatrix type="matrix" values="0 0 0 0 0.9275 0 0 0 0 0.582502 0 0 0 0 0.136033 0 0 0 0.27 0"></feColorMatrix>
    <feBlend mode="normal" in2="BackgroundImageFix" result="effect1_dropShadow_300_80"></feBlend>
    <feBlend mode="normal" in="SourceGraphic" in2="effect1_dropShadow_300_80" result="shape"></feBlend>
    </filter>
    </defs>
</svg>      